<mxfile host="65bd71144e">
    <diagram id="ixggnV8RtaeOouiZ63La" name="Page-1">
        <mxGraphModel dx="1430" dy="891" grid="1" gridSize="10" guides="1" tooltips="1" connect="1" arrows="1" fold="1" page="1" pageScale="1" pageWidth="850" pageHeight="1100" math="0" shadow="0">
            <root>
                <mxCell id="0"/>
                <mxCell id="1" parent="0"/>
                <mxCell id="LcNwLO7DvMdSj1Io22Rn-1" value="" style="rounded=1;whiteSpace=wrap;html=1;arcSize=2;fontStyle=0" parent="1" vertex="1">
                    <mxGeometry x="107" y="130" width="709" height="820" as="geometry"/>
                </mxCell>
                <mxCell id="LcNwLO7DvMdSj1Io22Rn-7" style="edgeStyle=none;rounded=0;orthogonalLoop=1;jettySize=auto;html=1;endArrow=none;endFill=0;" parent="1" source="LcNwLO7DvMdSj1Io22Rn-9" target="LcNwLO7DvMdSj1Io22Rn-32" edge="1">
                    <mxGeometry relative="1" as="geometry"/>
                </mxCell>
                <mxCell id="LcNwLO7DvMdSj1Io22Rn-9" value="Client" style="shape=umlActor;verticalLabelPosition=bottom;verticalAlign=top;html=1;outlineConnect=0;" parent="1" vertex="1">
                    <mxGeometry x="20" y="270" width="47" height="90" as="geometry"/>
                </mxCell>
                <mxCell id="LcNwLO7DvMdSj1Io22Rn-12" style="edgeStyle=none;rounded=0;orthogonalLoop=1;jettySize=auto;html=1;entryX=0;entryY=0.5;entryDx=0;entryDy=0;endArrow=none;endFill=0;" parent="1" source="LcNwLO7DvMdSj1Io22Rn-16" target="LcNwLO7DvMdSj1Io22Rn-40" edge="1">
                    <mxGeometry relative="1" as="geometry"/>
                </mxCell>
                <mxCell id="LcNwLO7DvMdSj1Io22Rn-13" style="edgeStyle=none;rounded=0;orthogonalLoop=1;jettySize=auto;html=1;entryX=0;entryY=0.5;entryDx=0;entryDy=0;endArrow=none;endFill=0;" parent="1" source="LcNwLO7DvMdSj1Io22Rn-16" target="LcNwLO7DvMdSj1Io22Rn-42" edge="1">
                    <mxGeometry relative="1" as="geometry"/>
                </mxCell>
                <mxCell id="LcNwLO7DvMdSj1Io22Rn-16" value="Admin" style="shape=umlActor;verticalLabelPosition=bottom;verticalAlign=top;html=1;outlineConnect=0;" parent="1" vertex="1">
                    <mxGeometry x="20" y="740" width="47" height="100" as="geometry"/>
                </mxCell>
                <mxCell id="LcNwLO7DvMdSj1Io22Rn-17" value="&lt;font style=&quot;font-size: 18px&quot;&gt;&lt;b&gt;Use Case diagramme Sport Time&lt;/b&gt;&lt;/font&gt;" style="text;html=1;strokeColor=none;fillColor=none;align=center;verticalAlign=middle;whiteSpace=wrap;rounded=0;" parent="1" vertex="1">
                    <mxGeometry x="222.5" y="160" width="460" height="30" as="geometry"/>
                </mxCell>
                <mxCell id="LcNwLO7DvMdSj1Io22Rn-27" style="edgeStyle=none;rounded=0;orthogonalLoop=1;jettySize=auto;html=1;entryX=1;entryY=1;entryDx=0;entryDy=0;endArrow=none;endFill=0;" parent="1" edge="1">
                    <mxGeometry relative="1" as="geometry">
                        <mxPoint x="245.28427124746213" y="432.14213562373106" as="sourcePoint"/>
                        <mxPoint x="245.28427124746213" y="432.14213562373106" as="targetPoint"/>
                    </mxGeometry>
                </mxCell>
                <mxCell id="LcNwLO7DvMdSj1Io22Rn-28" value="Connexion" style="ellipse;whiteSpace=wrap;html=1;" parent="1" vertex="1">
                    <mxGeometry x="690" y="470" width="95" height="50" as="geometry"/>
                </mxCell>
                <mxCell id="LcNwLO7DvMdSj1Io22Rn-31" value="&amp;lt;&amp;lt;include&amp;gt;&amp;gt;" style="edgeStyle=none;rounded=0;orthogonalLoop=1;jettySize=auto;html=1;endArrow=open;endFill=0;entryX=0.385;entryY=0.01;entryDx=0;entryDy=0;entryPerimeter=0;startArrow=none;startFill=0;dashed=1;" parent="1" source="LcNwLO7DvMdSj1Io22Rn-32" target="LcNwLO7DvMdSj1Io22Rn-28" edge="1">
                    <mxGeometry x="0.2406" relative="1" as="geometry">
                        <mxPoint x="527" y="728" as="targetPoint"/>
                        <Array as="points">
                            <mxPoint x="590" y="330"/>
                            <mxPoint x="670" y="380"/>
                        </Array>
                        <mxPoint as="offset"/>
                    </mxGeometry>
                </mxCell>
                <mxCell id="LcNwLO7DvMdSj1Io22Rn-32" value="Reserve" style="ellipse;whiteSpace=wrap;html=1;" parent="1" vertex="1">
                    <mxGeometry x="190" y="240" width="80" height="40" as="geometry"/>
                </mxCell>
                <mxCell id="LcNwLO7DvMdSj1Io22Rn-39" value="&amp;lt;&amp;lt;include&amp;gt;&amp;gt;" style="edgeStyle=none;rounded=0;orthogonalLoop=1;jettySize=auto;html=1;endArrow=open;endFill=0;entryX=0.24;entryY=0.975;entryDx=0;entryDy=0;entryPerimeter=0;startArrow=none;startFill=0;dashed=1;exitX=1;exitY=0.5;exitDx=0;exitDy=0;" parent="1" source="LcNwLO7DvMdSj1Io22Rn-40" target="LcNwLO7DvMdSj1Io22Rn-28" edge="1">
                    <mxGeometry relative="1" as="geometry">
                        <Array as="points">
                            <mxPoint x="620" y="700"/>
                        </Array>
                    </mxGeometry>
                </mxCell>
                <mxCell id="LcNwLO7DvMdSj1Io22Rn-40" value="Confirme the organizer registeration request" style="ellipse;whiteSpace=wrap;html=1;" parent="1" vertex="1">
                    <mxGeometry x="169" y="740" width="138" height="80" as="geometry"/>
                </mxCell>
                <mxCell id="LcNwLO7DvMdSj1Io22Rn-41" value="&amp;lt;&amp;lt;include&amp;gt;&amp;gt;" style="edgeStyle=none;rounded=0;orthogonalLoop=1;jettySize=auto;html=1;endArrow=open;endFill=0;entryX=0.649;entryY=1.072;entryDx=0;entryDy=0;entryPerimeter=0;startArrow=none;startFill=0;dashed=1;" parent="1" source="LcNwLO7DvMdSj1Io22Rn-42" target="LcNwLO7DvMdSj1Io22Rn-28" edge="1">
                    <mxGeometry relative="1" as="geometry">
                        <Array as="points">
                            <mxPoint x="460" y="840"/>
                            <mxPoint x="670" y="790"/>
                        </Array>
                    </mxGeometry>
                </mxCell>
                <mxCell id="LcNwLO7DvMdSj1Io22Rn-42" value="Suspendre le profil d'organisateur" style="ellipse;whiteSpace=wrap;html=1;" parent="1" vertex="1">
                    <mxGeometry x="187" y="840" width="102" height="60" as="geometry"/>
                </mxCell>
                <mxCell id="rEs1j5VtkF3X8l7jMAPh-3" style="rounded=0;orthogonalLoop=1;jettySize=auto;html=1;entryX=0;entryY=0.5;entryDx=0;entryDy=0;endArrow=none;endFill=0;" parent="1" source="rEs1j5VtkF3X8l7jMAPh-1" target="rEs1j5VtkF3X8l7jMAPh-2" edge="1">
                    <mxGeometry relative="1" as="geometry">
                        <Array as="points"/>
                    </mxGeometry>
                </mxCell>
                <mxCell id="rEs1j5VtkF3X8l7jMAPh-12" style="edgeStyle=none;rounded=0;orthogonalLoop=1;jettySize=auto;html=1;endArrow=none;endFill=0;" parent="1" source="rEs1j5VtkF3X8l7jMAPh-1" target="rEs1j5VtkF3X8l7jMAPh-11" edge="1">
                    <mxGeometry relative="1" as="geometry"/>
                </mxCell>
                <mxCell id="rEs1j5VtkF3X8l7jMAPh-1" value="organisateur" style="shape=umlActor;verticalLabelPosition=bottom;verticalAlign=top;html=1;outlineConnect=0;" parent="1" vertex="1">
                    <mxGeometry x="20" y="430" width="47" height="90" as="geometry"/>
                </mxCell>
                <mxCell id="rEs1j5VtkF3X8l7jMAPh-18" value="&amp;lt;&amp;lt;include&amp;gt;&amp;gt;" style="edgeStyle=none;rounded=0;orthogonalLoop=1;jettySize=auto;html=1;entryX=0;entryY=0.5;entryDx=0;entryDy=0;endArrow=open;endFill=0;dashed=1;" parent="1" source="rEs1j5VtkF3X8l7jMAPh-2" target="LcNwLO7DvMdSj1Io22Rn-28" edge="1">
                    <mxGeometry x="-0.3075" y="1" relative="1" as="geometry">
                        <Array as="points"/>
                        <mxPoint as="offset"/>
                    </mxGeometry>
                </mxCell>
                <mxCell id="rEs1j5VtkF3X8l7jMAPh-2" value="Modifier son identitÃ© de Profil" style="ellipse;whiteSpace=wrap;html=1;" parent="1" vertex="1">
                    <mxGeometry x="190" y="450" width="136" height="60" as="geometry"/>
                </mxCell>
                <mxCell id="3" value="&lt;font style=&quot;font-size: 12px&quot;&gt;&amp;lt;&amp;lt;include&amp;gt;&amp;gt;&lt;/font&gt;" style="edgeStyle=none;html=1;fontSize=18;dashed=1;endArrow=none;endFill=0;entryX=0.5;entryY=0;entryDx=0;entryDy=0;startArrow=open;startFill=0;" parent="1" source="rEs1j5VtkF3X8l7jMAPh-4" target="LcNwLO7DvMdSj1Io22Rn-28" edge="1">
                    <mxGeometry x="0.0072" relative="1" as="geometry">
                        <mxPoint as="offset"/>
                        <mxPoint x="673.9757375290812" y="201.58420567955864" as="targetPoint"/>
                    </mxGeometry>
                </mxCell>
                <mxCell id="rEs1j5VtkF3X8l7jMAPh-4" value="register" style="ellipse;whiteSpace=wrap;html=1;" parent="1" vertex="1">
                    <mxGeometry x="682.5" y="240" width="110" height="50" as="geometry"/>
                </mxCell>
                <mxCell id="rEs1j5VtkF3X8l7jMAPh-20" value="&amp;lt;&amp;lt;incude&amp;gt;&amp;gt;" style="edgeStyle=none;rounded=0;orthogonalLoop=1;jettySize=auto;html=1;dashed=1;endArrow=open;endFill=0;" parent="1" source="rEs1j5VtkF3X8l7jMAPh-11" target="rEs1j5VtkF3X8l7jMAPh-19" edge="1">
                    <mxGeometry relative="1" as="geometry"/>
                </mxCell>
                <mxCell id="rEs1j5VtkF3X8l7jMAPh-11" value="S'inscrire" style="ellipse;whiteSpace=wrap;html=1;" parent="1" vertex="1">
                    <mxGeometry x="187" y="370" width="110" height="50" as="geometry"/>
                </mxCell>
                <mxCell id="rEs1j5VtkF3X8l7jMAPh-19" value="Remplir le formulaire de demande" style="ellipse;whiteSpace=wrap;html=1;" parent="1" vertex="1">
                    <mxGeometry x="406.5" y="390" width="110" height="50" as="geometry"/>
                </mxCell>
                <mxCell id="NCV1q0EoNAmsbDJ_327a-2" style="edgeStyle=orthogonalEdgeStyle;rounded=0;orthogonalLoop=1;jettySize=auto;html=1;exitX=0.5;exitY=1;exitDx=0;exitDy=0;" parent="1" source="LcNwLO7DvMdSj1Io22Rn-17" target="LcNwLO7DvMdSj1Io22Rn-17" edge="1">
                    <mxGeometry relative="1" as="geometry"/>
                </mxCell>
                <mxCell id="5" style="edgeStyle=none;html=1;endArrow=none;endFill=0;" parent="1" source="4" edge="1">
                    <mxGeometry relative="1" as="geometry">
                        <mxPoint x="70" y="325" as="targetPoint"/>
                    </mxGeometry>
                </mxCell>
                <mxCell id="6" style="edgeStyle=none;html=1;entryX=0.064;entryY=0.274;entryDx=0;entryDy=0;entryPerimeter=0;endArrow=open;endFill=0;dashed=1;" parent="1" source="4" target="LcNwLO7DvMdSj1Io22Rn-28" edge="1">
                    <mxGeometry relative="1" as="geometry">
                        <Array as="points">
                            <mxPoint x="530" y="380"/>
                        </Array>
                    </mxGeometry>
                </mxCell>
                <mxCell id="9" value="&amp;lt;&amp;lt;include&amp;gt;&amp;gt;" style="edgeLabel;html=1;align=center;verticalAlign=middle;resizable=0;points=[];" parent="6" vertex="1" connectable="0">
                    <mxGeometry x="0.0741" relative="1" as="geometry">
                        <mxPoint x="54" y="21" as="offset"/>
                    </mxGeometry>
                </mxCell>
                <mxCell id="4" value="Contacter Admin" style="ellipse;whiteSpace=wrap;html=1;" parent="1" vertex="1">
                    <mxGeometry x="190" y="300" width="88" height="50" as="geometry"/>
                </mxCell>
                <mxCell id="11" style="edgeStyle=none;html=1;dashed=1;endArrow=open;endFill=0;" parent="1" source="10" target="LcNwLO7DvMdSj1Io22Rn-28" edge="1">
                    <mxGeometry relative="1" as="geometry"/>
                </mxCell>
                <mxCell id="12" value="&amp;lt;&amp;lt;include&amp;gt;&amp;gt;" style="edgeLabel;html=1;align=center;verticalAlign=middle;resizable=0;points=[];" parent="11" vertex="1" connectable="0">
                    <mxGeometry x="-0.1887" y="1" relative="1" as="geometry">
                        <mxPoint as="offset"/>
                    </mxGeometry>
                </mxCell>
                <mxCell id="13" style="edgeStyle=none;html=1;endArrow=none;endFill=0;exitX=0;exitY=0.5;exitDx=0;exitDy=0;" parent="1" source="10" target="rEs1j5VtkF3X8l7jMAPh-1" edge="1">
                    <mxGeometry relative="1" as="geometry">
                        <mxPoint x="79.99999999999989" y="500" as="targetPoint"/>
                    </mxGeometry>
                </mxCell>
                <mxCell id="10" value="Ajouter Un stade" style="ellipse;whiteSpace=wrap;html=1;" parent="1" vertex="1">
                    <mxGeometry x="204.5" y="520" width="107" height="50" as="geometry"/>
                </mxCell>
                <mxCell id="15" style="edgeStyle=none;html=1;endArrow=none;endFill=0;exitX=0;exitY=0.5;exitDx=0;exitDy=0;" parent="1" source="14" target="rEs1j5VtkF3X8l7jMAPh-1" edge="1">
                    <mxGeometry relative="1" as="geometry"/>
                </mxCell>
                <mxCell id="16" style="edgeStyle=none;html=1;endArrow=open;endFill=0;dashed=1;exitX=1;exitY=0.5;exitDx=0;exitDy=0;" parent="1" source="14" edge="1">
                    <mxGeometry relative="1" as="geometry">
                        <mxPoint x="702.898533033288" y="510" as="targetPoint"/>
                    </mxGeometry>
                </mxCell>
                <mxCell id="17" value="&amp;lt;&amp;lt;include&amp;gt;&amp;gt;" style="edgeLabel;html=1;align=center;verticalAlign=middle;resizable=0;points=[];" parent="16" vertex="1" connectable="0">
                    <mxGeometry x="-0.1347" y="-2" relative="1" as="geometry">
                        <mxPoint as="offset"/>
                    </mxGeometry>
                </mxCell>
                <mxCell id="14" value="Regarder et supprimer&lt;br&gt;&amp;nbsp;tous les reservations&amp;nbsp;&amp;nbsp;" style="ellipse;whiteSpace=wrap;html=1;" parent="1" vertex="1">
                    <mxGeometry x="190" y="580" width="155.5" height="60" as="geometry"/>
                </mxCell>
                <mxCell id="19" style="edgeStyle=none;html=1;dashed=1;endArrow=open;endFill=0;exitX=1;exitY=0.5;exitDx=0;exitDy=0;" parent="1" source="18" edge="1">
                    <mxGeometry relative="1" as="geometry">
                        <mxPoint x="710" y="519.9999999999998" as="targetPoint"/>
                        <Array as="points">
                            <mxPoint x="530" y="640"/>
                        </Array>
                    </mxGeometry>
                </mxCell>
                <mxCell id="20" value="&amp;lt;&amp;lt;include&amp;gt;&amp;gt;" style="edgeLabel;html=1;align=center;verticalAlign=middle;resizable=0;points=[];" parent="19" vertex="1" connectable="0">
                    <mxGeometry x="-0.0938" y="2" relative="1" as="geometry">
                        <mxPoint as="offset"/>
                    </mxGeometry>
                </mxCell>
                <mxCell id="21" style="edgeStyle=none;html=1;entryX=1;entryY=0.3333333333333333;entryDx=0;entryDy=0;entryPerimeter=0;endArrow=none;endFill=0;" parent="1" source="18" target="LcNwLO7DvMdSj1Io22Rn-16" edge="1">
                    <mxGeometry relative="1" as="geometry"/>
                </mxCell>
                <mxCell id="18" value="Suspendre le profil d'organisateur" style="ellipse;whiteSpace=wrap;html=1;" parent="1" vertex="1">
                    <mxGeometry x="183" y="670" width="102" height="60" as="geometry"/>
                </mxCell>
            </root>
        </mxGraphModel>
    </diagram>
</mxfile>